<?xml version="1.0" encoding="UTF-8"?>
<!DOCTYPE svg PUBLIC "-//W3C//DTD SVG 1.1//EN" "http://www.w3.org/Graphics/SVG/1.1/DTD/svg11.dtd">
<!-- Creator: CorelDRAW 2020 (64 Bit) -->
<svg xmlns="http://www.w3.org/2000/svg" xml:space="preserve" width="1080px" height="312px" version="1.1" style="shape-rendering:geometricPrecision; text-rendering:geometricPrecision; image-rendering:optimizeQuality; fill-rule:evenodd; clip-rule:evenodd"
viewBox="0 0 1078.95 312.02"
 xmlns:xlink="http://www.w3.org/1999/xlink"
 xmlns:xodm="http://www.corel.com/coreldraw/odm/2003">
 <defs>
  <style type="text/css">
   <![CDATA[
    .fil0 {fill:white}
    .fil2 {fill:white}
    .fil1 {fill:white;fill-rule:nonzero}
   ]]>
  </style>
 </defs>
 <g id="Camada_x0020_1">
  <metadata id="CorelCorpID_0Corel-Layer"/>
  <g id="_1803372955888">
   <path class="fil0" d="M155.21 47.72l0.64 -0.47 25.71 -19.03 7.26 -5.37c3.75,-2.77 9.89,-2.77 13.64,0l4.82 3.57 24.84 18.38 126.69 93.74 22.37 16.55 7.29 5.4c3.75,2.77 3.75,7.31 0,10.09l-1.18 0.87 -31.79 23.52 -70.16 51.92 -25.22 18.66 -4.44 3.29c-3.75,2.77 -9.89,2.77 -13.64,0l-2.98 -2.21 -20.75 -15.35 -9.24 -6.84c-3.75,-2.77 -3.75,-7.31 0,-10.09l2.38 -1.76 27.28 -20.18 56.73 -41.98c1.82,-1.35 1.82,-3.55 0,-4.9 -1.82,-1.34 -4.79,-1.34 -6.61,0l-6.82 5.05 -29.66 21.95 -1.44 1.06 -0.05 -0.16c-3.74,1.83 -8.86,1.53 -12.15,-0.9l-22.53 -16.68 -3.89 -2.88 -3.24 -2.39c-3.75,-2.78 -3.75,-7.32 0,-10.09l5.03 -3.72 24.63 -18.23 10.13 -7.49c1.79,-1.33 1.84,-3.59 -0.02,-4.91l-92.58 -68.5 -0.41 -0.3c-3.53,-2.62 -3.73,-6.8 -0.61,-9.59l-0.03 -0.03zm-152.24 112.66l-0.16 0.11c-3.75,2.77 -3.75,7.31 0,10.09l9.14 6.76 20.52 15.19 123.38 91.29 29.65 21.94 3.32 2.46c3.75,2.77 9.89,2.77 13.64,0l5.09 -3.77 18.58 -13.75 9.3 -6.88c3.55,-2.62 3.74,-6.84 0.56,-9.63l0.04 -0.01 -0.6 -0.45 -32.97 -24.39 -106.64 -78.91c-1.82,-1.35 -1.82,-3.55 0,-4.89 1.82,-1.35 4.79,-1.35 6.61,-0.01l53.42 39.53 30.18 22.33 2.79 2.07c3.75,2.77 9.89,2.77 13.64,0l10.26 -7.59 15.6 -11.55 3.8 -2.81c3.75,-2.77 3.75,-7.31 0,-10.09l-22.99 -17.01 -9.98 -7.38 -53.42 -39.53c-1.82,-1.35 -1.82,-3.55 0,-4.9 1.82,-1.34 4.79,-1.34 6.61,0l32.57 24.1 0 0 3.91 2.89c3.75,2.78 9.89,2.78 13.64,0l29.66 -21.94c3.75,-2.78 3.75,-7.32 0,-10.09l-3.28 -2.43 -26.38 -19.52 -23.56 -17.43 -29.66 -21.95 -0.49 -0.36 -0.02 0.01c-3.77,-2.42 -9.54,-2.3 -13.13,0.35l-5.98 4.43 -23.68 17.52 -73.47 54.36 -29.5 21.84z"/>
   <path class="fil1" d="M636.77 140.93l-0.34 -120.16 -33.3 0 -38.11 64.03 -39.13 -64.03 -33.3 0 0 120.16 36.9 0 0 -52.87 26.09 42.05 17.85 0 26.1 -43.94 0.34 54.76 36.9 0zm37.77 -101.45c14.25,0 23.34,-8.58 23.34,-20.43 0,-11.15 -9.09,-19.05 -23.34,-19.05 -14.25,0 -23.35,8.58 -23.35,19.74 0,11.16 9.1,19.74 23.35,19.74zm-19.4 101.45l38.79 0 0 -93.9 -38.79 0 0 93.9zm106.43 1.71c22.82,0 39.99,-10.47 46.17,-27.8l-30.04 -14.77c-3.95,8.76 -9.61,12.36 -16.31,12.36 -8.75,0 -15.96,-6.18 -15.96,-18.54 0,-12.18 7.21,-18.36 15.96,-18.36 6.7,0 12.36,3.6 16.31,12.36l30.04 -14.77c-6.18,-17.33 -23.35,-27.8 -46.17,-27.8 -32.45,0 -55.45,20.08 -55.45,48.57 0,28.67 23,48.75 55.45,48.75zm97.15 -97.32c-14.59,0 -31.24,3.77 -42.23,10.64l12.36 25.58c6.18,-4.64 15.62,-7.39 24.03,-7.39 10.99,0 16.48,3.78 17.68,10.99l-15.62 0c-29.18,0 -42.91,10.13 -42.91,28.32 0,16.14 11.85,29.18 34.85,29.18 13.21,0 22.14,-4.63 26.6,-14.07l0 12.36 36.05 0 0 -50.47c0,-31.24 -18.54,-45.14 -50.81,-45.14zm-0.17 73.98c-5.84,0 -9.27,-3.26 -9.27,-7.55 0,-5.15 3.6,-7.9 11.84,-7.9l9.62 0 0 6.52c-2.06,6.18 -6.87,8.93 -12.19,8.93zm169.42 -25.41c0,-31.75 -23.86,-48.57 -51.67,-48.57 -30.38,0 -53.21,20.08 -53.21,48.57 0,27.98 22.32,48.75 56.82,48.75 18.71,0 31.92,-5.15 41.02,-15.1l-20.25 -20.43c-6.18,4.64 -10.99,6.87 -19.57,6.87 -9.61,0 -16.14,-3.78 -18.88,-10.99l65.23 0c0.17,-2.75 0.51,-6.35 0.51,-9.1zm-51.32 -22.14c7.89,0 13.56,4.64 15.1,12.53l-30.21 0c1.55,-7.89 7.04,-12.53 15.11,-12.53zm63.51 69.18l38.79 0 0 -127.37 -38.79 0 0 127.37zm-449.9 79.77l0 -30.56 -97.67 0 0 120.16 40.51 0 0 -38.45 50.12 0 0 -30.55 -50.12 0 0 -20.6 57.16 0zm52.01 -6.01c-14.59,0 -31.24,3.78 -42.23,10.64l12.36 25.58c6.18,-4.64 15.62,-7.38 24.03,-7.38 10.99,0 16.48,3.77 17.68,10.98l-15.62 0c-29.18,0 -42.91,10.13 -42.91,28.33 0,16.13 11.84,29.18 34.84,29.18 13.22,0 22.15,-4.64 26.61,-14.08l0 12.36 36.05 0 0 -50.47c0,-31.24 -18.54,-45.14 -50.81,-45.14zm-0.17 73.98c-5.84,0 -9.27,-3.26 -9.27,-7.55 0,-5.15 3.6,-7.9 11.84,-7.9l9.61 0 0 6.53c-2.06,6.18 -6.86,8.92 -12.18,8.92zm104.7 -62.14l0 -10.12 -36.9 0 0 93.89 38.79 0 0 -41.71c0,-14.94 8.24,-20.26 19.91,-20.26 2.75,0 5.15,0.17 8.59,0.69l0 -34.33c-13.05,0 -23.52,3.95 -30.39,11.84zm60.77 -17.68c14.25,0 23.34,-8.58 23.34,-20.42 0,-11.16 -9.09,-19.06 -23.34,-19.06 -14.25,0 -23.35,8.59 -23.35,19.74 0,11.16 9.1,19.74 23.35,19.74zm-19.4 101.45l38.79 0 0 -93.89 -38.79 0 0 93.89zm98.01 -95.61c-14.59,0 -31.24,3.78 -42.22,10.64l12.36 25.58c6.18,-4.64 15.62,-7.38 24.03,-7.38 10.98,0 16.48,3.77 17.68,10.98l-15.62 0c-29.18,0 -42.91,10.13 -42.91,28.33 0,16.13 11.84,29.18 34.84,29.18 13.22,0 22.14,-4.64 26.61,-14.08l0 12.36 36.04 0 0 -50.47c0,-31.24 -18.53,-45.14 -50.81,-45.14zm-0.17 73.98c-5.83,0 -9.27,-3.26 -9.27,-7.55 0,-5.15 3.61,-7.9 11.85,-7.9l9.61 0 0 6.53c-2.06,6.18 -6.87,8.92 -12.19,8.92zm104.54 23.35c32.61,0 48.58,-14.77 48.58,-31.76 0,-37.59 -53.9,-24.89 -53.9,-34.67 0,-2.24 2.75,-4.47 12.7,-4.47 7.9,0 17.51,1.55 27.12,6.87l10.64 -25.58c-9.95,-5.15 -24.54,-7.72 -38.28,-7.72 -31.58,0 -48.06,14.42 -48.06,32.1 0,37.59 54.07,24.72 54.07,34.33 0,2.74 -2.57,4.46 -12.01,4.46 -11.16,0 -23.86,-3.09 -32.79,-8.41l-10.64 25.58c9.61,5.49 26.43,9.27 42.57,9.27z"/>
   <path class="fil2" d="M437.55 20.77l0 0c5.57,0 10.12,4.56 10.12,10.13l0 269.27c0,5.57 -4.55,10.13 -10.12,10.13l0 0c-5.58,0 -10.13,-4.56 -10.13,-10.13l0 -269.27c0,-5.57 4.55,-10.13 10.13,-10.13z"/>
  </g>
 </g>
</svg>
