<?xml version="1.0" encoding="UTF-8"?>
<!DOCTYPE svg PUBLIC "-//W3C//DTD SVG 1.1//EN" "http://www.w3.org/Graphics/SVG/1.1/DTD/svg11.dtd">
<!-- Creator: CorelDRAW 2020 (64 Bit) -->
<svg xmlns="http://www.w3.org/2000/svg" xml:space="preserve" width="720px" height="533px" version="1.1" style="shape-rendering:geometricPrecision; text-rendering:geometricPrecision; image-rendering:optimizeQuality; fill-rule:evenodd; clip-rule:evenodd"
viewBox="0 0 260.85 193.02"
 xmlns:xlink="http://www.w3.org/1999/xlink"
 xmlns:xodm="http://www.corel.com/coreldraw/odm/2003">
 <defs>
  <style type="text/css">
   <![CDATA[
    .fil0 {fill:black}
   ]]>
  </style>
 </defs>
 <g id="Camada_x0020_1">
  <metadata id="CorelCorpID_0Corel-Layer"/>
  <path class="fil0" d="M103.47 17.97l0.43 -0.32 17.14 -12.68 4.84 -3.58c2.5,-1.85 6.59,-1.85 9.09,0l3.21 2.37 16.57 12.26 84.46 62.49 14.91 11.04 4.86 3.6c2.5,1.85 2.5,4.87 0,6.72l-0.78 0.58 -21.2 15.69 -46.77 34.61 -16.82 12.44 -2.96 2.19c-2.5,1.85 -6.59,1.85 -9.09,0l-1.99 -1.47 -13.83 -10.23 -6.16 -4.56c-2.5,-1.85 -2.5,-4.88 0,-6.73l1.59 -1.18 18.19 -13.45 37.82 -27.99c1.21,-0.9 1.21,-2.36 0,-3.26 -1.22,-0.9 -3.2,-0.9 -4.41,0l-4.55 3.36 -19.77 14.64 -0.96 0.7 -0.03 -0.11c-2.5,1.23 -5.91,1.03 -8.1,-0.59l-15.03 -11.12 -2.59 -1.92 -2.16 -1.6c-2.5,-1.85 -2.5,-4.87 0,-6.72l3.35 -2.48 16.43 -12.16 6.75 -4.99c1.19,-0.88 1.22,-2.4 -0.01,-3.27l-61.73 -45.67 -0.27 -0.2c-2.35,-1.75 -2.49,-4.53 -0.41,-6.4l-0.02 -0.01zm-101.49 75.1l-0.1 0.08c-2.5,1.85 -2.5,4.87 0,6.72l6.09 4.51 13.68 10.13 82.25 60.86 19.76 14.62 2.22 1.64c2.5,1.85 6.59,1.85 9.09,0l3.4 -2.51 12.39 -9.17 6.19 -4.58c2.37,-1.75 2.49,-4.56 0.38,-6.42l0.02 -0.01 -0.4 -0.3 -21.98 -16.26 -71.09 -52.61c-1.21,-0.89 -1.21,-2.36 0,-3.26 1.21,-0.9 3.19,-0.9 4.41,0l35.61 26.35 20.12 14.89 1.86 1.38c2.5,1.85 6.59,1.85 9.09,0l6.84 -5.07 10.4 -7.69 2.54 -1.88c2.5,-1.85 2.5,-4.87 0,-6.72l-15.33 -11.34 -6.65 -4.93 -35.62 -26.35c-1.21,-0.9 -1.21,-2.36 0,-3.26 1.22,-0.9 3.2,-0.9 4.41,0l21.71 16.06 0 0 2.61 1.93c2.5,1.85 6.59,1.85 9.09,0l19.78 -14.63c2.5,-1.85 2.5,-4.88 0,-6.72l-2.19 -1.62 -17.59 -13.02 -15.7 -11.62 -19.78 -14.63 -0.32 -0.24 -0.02 0.01c-2.51,-1.62 -6.36,-1.54 -8.75,0.23l-3.99 2.95 -15.78 11.68 -48.98 36.24 -19.67 14.56z"/>
 </g>
</svg>
